<svg id="Layer_1" data-name="Layer 1" xmlns="http://www.w3.org/2000/svg" viewBox="0 0 552.11 162.27"><defs><style>.cls-1{fill:#010101;}</style></defs><title>logo eva</title><polygon class="cls-1" points="0 94.72 0 0 26.86 0 26.86 7.65 7.64 7.65 7.64 41.18 21.72 41.18 21.72 48.83 7.64 48.83 7.64 87.21 27.22 87.21 27.22 94.72 0 94.72"/><path class="cls-1" d="M266.21,285V190.31h18.11a11.15,11.15,0,0,1,11.16,11V274A11.15,11.15,0,0,1,284.32,285Zm17.47-7.51c2.24,0,4.1-.35,4.1-4.73V201.68c0-1.73-.5-3.72-4.42-3.72h-9.5v79.56Z" transform="translate(-35.32 -190.31)"/><path class="cls-1" d="M101.93,190.77s6.46,45.46,10.46,71.39l10.84-71.39h7.64l-14.49,94.72h-8L93.93,190.77Z" transform="translate(-35.32 -190.31)"/><path class="cls-1" d="M191,285.49S184.54,240,180.54,214.1L169.7,285.49h-7.64l14.48-94.72h8L199,285.49Z" transform="translate(-35.32 -190.31)"/><polygon class="cls-1" points="293.67 94.72 293.67 0 320.52 0 320.52 7.65 301.31 7.65 301.31 41.18 315.39 41.18 315.39 48.83 301.31 48.83 301.31 87.21 320.89 87.21 320.89 94.72 293.67 94.72"/><polygon class="cls-1" points="388.43 94.72 388.43 0 415.29 0 415.29 7.65 396.08 7.65 396.08 41.18 410.15 41.18 410.15 48.83 396.08 48.83 396.08 87.21 415.66 87.21 415.66 94.72 388.43 94.72"/><path class="cls-1" d="M490.36,190.77s6.46,45.46,10.46,71.39l10.84-71.39h7.64l-14.48,94.72h-8l-14.49-94.72Z" transform="translate(-35.32 -190.31)"/><path class="cls-1" d="M579.43,285.49S573,240,569,214.1l-10.84,71.39h-7.64L565,190.77h8l14.49,94.72Z" transform="translate(-35.32 -190.31)"/><path class="cls-1" d="M114.87,352.13h-2.79l7.8-18h2.29l7.72,18H127l-1.82-4.42h-8.54Zm2.7-6.63h6.73L121,337.06Z" transform="translate(-35.32 -190.31)"/><path class="cls-1" d="M146.23,337.47a3.86,3.86,0,0,0-1.45-1.21,4.45,4.45,0,0,0-2.05-.47,4.85,4.85,0,0,0-1.24.16,3.37,3.37,0,0,0-1.13.54,2.86,2.86,0,0,0-.82.91,2.5,2.5,0,0,0-.32,1.31,2.43,2.43,0,0,0,.29,1.23,2.75,2.75,0,0,0,.79.84,4.92,4.92,0,0,0,1.17.59l1.43.49c.61.19,1.23.4,1.86.64a6.85,6.85,0,0,1,1.7.94,4.78,4.78,0,0,1,1.25,1.46,4.59,4.59,0,0,1,.48,2.22,5.28,5.28,0,0,1-.52,2.43,4.93,4.93,0,0,1-1.39,1.7,5.84,5.84,0,0,1-2,1,8.3,8.3,0,0,1-2.33.33,8.51,8.51,0,0,1-3.29-.66,6.6,6.6,0,0,1-2.63-2l2-1.65a4.82,4.82,0,0,0,1.7,1.52,4.73,4.73,0,0,0,2.31.59,4.58,4.58,0,0,0,1.27-.18,3.67,3.67,0,0,0,1.16-.56,3,3,0,0,0,.85-.95,2.75,2.75,0,0,0,.33-1.39,2.52,2.52,0,0,0-.34-1.36,3.17,3.17,0,0,0-.93-.93,5.91,5.91,0,0,0-1.36-.64l-1.64-.55a15.79,15.79,0,0,1-1.7-.62,6,6,0,0,1-1.5-.94,4.32,4.32,0,0,1-1.07-1.41,4.81,4.81,0,0,1-.4-2.09,4.67,4.67,0,0,1,.54-2.31,5,5,0,0,1,1.43-1.6,6,6,0,0,1,2-.93,8.9,8.9,0,0,1,2.22-.29,7.78,7.78,0,0,1,3,.56,5.77,5.77,0,0,1,2.21,1.5Z" transform="translate(-35.32 -190.31)"/><path class="cls-1" d="M174.67,352.13h-2.54v-7.78l-6.74-10.21h3.11l5,8.13,5-8.13h2.93l-6.74,10.21Z" transform="translate(-35.32 -190.31)"/><path class="cls-1" d="M206.08,343.11a9.88,9.88,0,0,1-.72,3.82,9,9,0,0,1-2,3,8.91,8.91,0,0,1-3,2,10.32,10.32,0,0,1-3.81.7,10.2,10.2,0,0,1-3.8-.7,8.88,8.88,0,0,1-5-5,10.71,10.71,0,0,1,0-7.67,8.64,8.64,0,0,1,5-4.89,10.19,10.19,0,0,1,3.8-.69,10.32,10.32,0,0,1,3.81.69,8.68,8.68,0,0,1,5,4.89A10,10,0,0,1,206.08,343.11Zm-2.72,0a8,8,0,0,0-.48-2.78,7,7,0,0,0-1.37-2.3,6.26,6.26,0,0,0-2.15-1.57,7.26,7.26,0,0,0-5.64,0,6.22,6.22,0,0,0-2.14,1.57,7.33,7.33,0,0,0-1.36,2.3,8,8,0,0,0-.48,2.78,8.19,8.19,0,0,0,.48,2.82,6.92,6.92,0,0,0,1.38,2.3,6.47,6.47,0,0,0,2.13,1.54,6.8,6.8,0,0,0,2.8.56,7,7,0,0,0,2.82-.56,6.49,6.49,0,0,0,2.16-1.54,6.9,6.9,0,0,0,1.37-2.3A8.19,8.19,0,0,0,203.36,343.11Z" transform="translate(-35.32 -190.31)"/><path class="cls-1" d="M221.46,352.59a7.42,7.42,0,0,1-3.1-.6,6.38,6.38,0,0,1-2.19-1.59,6.61,6.61,0,0,1-1.28-2.27,8.51,8.51,0,0,1-.42-2.66V334.14H217v11.18a7.49,7.49,0,0,0,.22,1.82,4.86,4.86,0,0,0,.75,1.61,3.78,3.78,0,0,0,1.38,1.14,4.59,4.59,0,0,0,2.12.44,4.67,4.67,0,0,0,2.11-.44,3.78,3.78,0,0,0,1.38-1.14,4.5,4.5,0,0,0,.75-1.61,7.5,7.5,0,0,0,.23-1.82V334.14h2.52v11.33a8.51,8.51,0,0,1-.42,2.66,6.47,6.47,0,0,1-1.29,2.27,6.25,6.25,0,0,1-2.18,1.59A7.45,7.45,0,0,1,221.46,352.59Z" transform="translate(-35.32 -190.31)"/><path class="cls-1" d="M250.46,348.52h0V334.14H253v18h-3.17l-9.51-14.69h-.05v14.69h-2.52v-18h3.28Z" transform="translate(-35.32 -190.31)"/><path class="cls-1" d="M276.05,337.85a6,6,0,0,0-2.07-1.43,7.25,7.25,0,0,0-2.81-.53,6.91,6.91,0,0,0-2.85.57,6.21,6.21,0,0,0-2.16,1.57,7,7,0,0,0-1.37,2.3,8,8,0,0,0-.48,2.78,8.19,8.19,0,0,0,.48,2.82,6.9,6.9,0,0,0,1.37,2.3,6.32,6.32,0,0,0,2.19,1.54,7.27,7.27,0,0,0,2.89.56,11.32,11.32,0,0,0,2.34-.23,7.51,7.51,0,0,0,1.86-.66v-5h-4v-2.14h6.48V351a13.07,13.07,0,0,1-3.1,1.17,15.6,15.6,0,0,1-3.66.41,10.58,10.58,0,0,1-3.88-.7,9,9,0,0,1-3-2,9.12,9.12,0,0,1-2-3,10.07,10.07,0,0,1-.71-3.82,10,10,0,0,1,.72-3.85,8.69,8.69,0,0,1,5.05-4.89,10.32,10.32,0,0,1,3.81-.69,11,11,0,0,1,3.85.63A8.33,8.33,0,0,1,277.8,336Z" transform="translate(-35.32 -190.31)"/><path class="cls-1" d="M299.05,352.13h-2.8l7.8-18h2.29l7.73,18h-2.85l-1.83-4.42h-8.54Zm2.69-6.63h6.73l-3.35-8.44Z" transform="translate(-35.32 -190.31)"/><path class="cls-1" d="M330.41,337.47a3.94,3.94,0,0,0-1.45-1.21,4.49,4.49,0,0,0-2.06-.47,4.72,4.72,0,0,0-1.23.16,3.28,3.28,0,0,0-1.13.54,2.89,2.89,0,0,0-.83.91,2.59,2.59,0,0,0-.32,1.31,2.34,2.34,0,0,0,.3,1.23,2.6,2.6,0,0,0,.78.84,4.92,4.92,0,0,0,1.17.59l1.44.49c.61.19,1.23.4,1.85.64a6.74,6.74,0,0,1,1.71.94,4.75,4.75,0,0,1,1.24,1.46,4.59,4.59,0,0,1,.48,2.22,5.28,5.28,0,0,1-.52,2.43,4.91,4.91,0,0,1-1.38,1.7,5.89,5.89,0,0,1-2,1,8.23,8.23,0,0,1-2.32.33,8.48,8.48,0,0,1-3.29-.66,6.53,6.53,0,0,1-2.63-2l1.95-1.65a4.94,4.94,0,0,0,1.71,1.52,4.73,4.73,0,0,0,2.31.59,4.64,4.64,0,0,0,1.27-.18,3.78,3.78,0,0,0,1.16-.56,3.11,3.11,0,0,0,.85-.95,2.75,2.75,0,0,0,.33-1.39,2.61,2.61,0,0,0-.34-1.36,3.17,3.17,0,0,0-.93-.93,6.11,6.11,0,0,0-1.36-.64l-1.64-.55a14.37,14.37,0,0,1-1.7-.62,6,6,0,0,1-1.5-.94,4.32,4.32,0,0,1-1.07-1.41,4.8,4.8,0,0,1-.41-2.09,4.57,4.57,0,0,1,.55-2.31,5,5,0,0,1,1.42-1.6,6.21,6.21,0,0,1,2-.93,8.92,8.92,0,0,1,2.23-.29,7.82,7.82,0,0,1,3,.56,5.84,5.84,0,0,1,2.21,1.5Z" transform="translate(-35.32 -190.31)"/><path class="cls-1" d="M358.85,352.13H356.3v-7.78l-6.73-10.21h3.1l5,8.13,5-8.13h2.92l-6.73,10.21Z" transform="translate(-35.32 -190.31)"/><path class="cls-1" d="M390.26,343.11a9.71,9.71,0,0,1-.73,3.82,9.15,9.15,0,0,1-2,3,9,9,0,0,1-3,2,10.69,10.69,0,0,1-7.61,0,9.06,9.06,0,0,1-3-2,8.82,8.82,0,0,1-2-3,10.71,10.71,0,0,1,0-7.67,8.64,8.64,0,0,1,2-3,8.94,8.94,0,0,1,3-1.91,10.84,10.84,0,0,1,7.61,0,8.6,8.6,0,0,1,5,4.89A9.78,9.78,0,0,1,390.26,343.11Zm-2.72,0a7.78,7.78,0,0,0-.49-2.78,6.83,6.83,0,0,0-1.37-2.3,6.32,6.32,0,0,0-2.14-1.57,6.83,6.83,0,0,0-2.84-.57,6.75,6.75,0,0,0-2.81.57,6.09,6.09,0,0,0-2.13,1.57,7,7,0,0,0-1.36,2.3,8,8,0,0,0-.48,2.78,8.19,8.19,0,0,0,.48,2.82,6.9,6.9,0,0,0,1.37,2.3,6.51,6.51,0,0,0,2.14,1.54,6.78,6.78,0,0,0,2.79.56,7,7,0,0,0,2.82-.56,6.39,6.39,0,0,0,2.16-1.54,6.73,6.73,0,0,0,1.37-2.3A8,8,0,0,0,387.54,343.11Z" transform="translate(-35.32 -190.31)"/><path class="cls-1" d="M405.63,352.59a7.45,7.45,0,0,1-3.1-.6,6.25,6.25,0,0,1-2.18-1.59,6.47,6.47,0,0,1-1.29-2.27,8.51,8.51,0,0,1-.42-2.66V334.14h2.52v11.18a7.5,7.5,0,0,0,.23,1.82,4.5,4.5,0,0,0,.75,1.61,3.74,3.74,0,0,0,1.37,1.14,5.3,5.3,0,0,0,4.23,0,3.73,3.73,0,0,0,1.39-1.14,4.86,4.86,0,0,0,.75-1.61,7.5,7.5,0,0,0,.23-1.82V334.14h2.51v11.33a8.51,8.51,0,0,1-.42,2.66,6.61,6.61,0,0,1-1.28,2.27,6.38,6.38,0,0,1-2.19,1.59A7.42,7.42,0,0,1,405.63,352.59Z" transform="translate(-35.32 -190.31)"/><path class="cls-1" d="M435.9,352.13h-2.52v-18h11.24v2.21H435.9v5.59h8.16v2.16H435.9Z" transform="translate(-35.32 -190.31)"/><path class="cls-1" d="M455.42,349.92h9.4v2.21H452.9v-18h11.54v2.21h-9v5.39h8.49v2.16h-8.49Z" transform="translate(-35.32 -190.31)"/><path class="cls-1" d="M475.77,349.92h9.41v2.21H473.26v-18H484.8v2.21h-9v5.39h8.49v2.16h-8.49Z" transform="translate(-35.32 -190.31)"/><path class="cls-1" d="M496.13,349.92h8v2.21H493.62v-18h2.51Z" transform="translate(-35.32 -190.31)"/></svg>